<mxfile host="Electron" agent="Mozilla/5.0 (Windows NT 10.0; Win64; x64) AppleWebKit/537.36 (KHTML, like Gecko) draw.io/25.0.2 Chrome/128.0.6613.186 Electron/32.2.5 Safari/537.36" version="25.0.2">
  <diagram name="Page-1" id="B_HjCtWxCoqe7jDayNZ8">
    <mxGraphModel dx="1434" dy="836" grid="1" gridSize="10" guides="1" tooltips="1" connect="1" arrows="1" fold="1" page="1" pageScale="1" pageWidth="1169" pageHeight="827" math="0" shadow="0">
      <root>
        <mxCell id="0" />
        <mxCell id="1" parent="0" />
        <mxCell id="xwJ4hHy4Kp6xMEuaH-G5-8" value="&lt;h3&gt;&lt;br&gt;&lt;/h3&gt;" style="rounded=0;whiteSpace=wrap;html=1;align=left;" vertex="1" parent="1">
          <mxGeometry x="220" y="410" width="810" height="270" as="geometry" />
        </mxCell>
        <mxCell id="FKuzl6OoXeRdMzzExaLu-1" value="Train Search Service" style="rounded=1;whiteSpace=wrap;html=1;" parent="1" vertex="1">
          <mxGeometry x="670" y="590" width="120" height="60" as="geometry" />
        </mxCell>
        <mxCell id="xwJ4hHy4Kp6xMEuaH-G5-2" style="edgeStyle=orthogonalEdgeStyle;rounded=0;orthogonalLoop=1;jettySize=auto;html=1;exitX=0.5;exitY=0;exitDx=0;exitDy=0;entryX=0.5;entryY=1;entryDx=0;entryDy=0;" edge="1" parent="1" source="FKuzl6OoXeRdMzzExaLu-2" target="FKuzl6OoXeRdMzzExaLu-3">
          <mxGeometry relative="1" as="geometry" />
        </mxCell>
        <mxCell id="FKuzl6OoXeRdMzzExaLu-2" value="Banking Service" style="rounded=1;whiteSpace=wrap;html=1;" parent="1" vertex="1">
          <mxGeometry x="515" y="590" width="120" height="60" as="geometry" />
        </mxCell>
        <mxCell id="FKuzl6OoXeRdMzzExaLu-3" value="Ticketing Service" style="rounded=1;whiteSpace=wrap;html=1;" parent="1" vertex="1">
          <mxGeometry x="395" y="440" width="120" height="60" as="geometry" />
        </mxCell>
        <mxCell id="FKuzl6OoXeRdMzzExaLu-4" value="Notification Service" style="rounded=1;whiteSpace=wrap;html=1;" parent="1" vertex="1">
          <mxGeometry x="840" y="440" width="120" height="60" as="geometry" />
        </mxCell>
        <mxCell id="xwJ4hHy4Kp6xMEuaH-G5-18" style="edgeStyle=orthogonalEdgeStyle;rounded=0;orthogonalLoop=1;jettySize=auto;html=1;exitX=0.5;exitY=0;exitDx=0;exitDy=0;entryX=0.5;entryY=1;entryDx=0;entryDy=0;" edge="1" parent="1" source="FKuzl6OoXeRdMzzExaLu-5" target="FKuzl6OoXeRdMzzExaLu-4">
          <mxGeometry relative="1" as="geometry" />
        </mxCell>
        <mxCell id="FKuzl6OoXeRdMzzExaLu-5" value="Tracking Service" style="rounded=1;whiteSpace=wrap;html=1;" parent="1" vertex="1">
          <mxGeometry x="840" y="590" width="120" height="60" as="geometry" />
        </mxCell>
        <mxCell id="xwJ4hHy4Kp6xMEuaH-G5-1" style="edgeStyle=orthogonalEdgeStyle;rounded=0;orthogonalLoop=1;jettySize=auto;html=1;exitX=0.5;exitY=0;exitDx=0;exitDy=0;entryX=0.5;entryY=1;entryDx=0;entryDy=0;" edge="1" parent="1" source="FKuzl6OoXeRdMzzExaLu-6" target="FKuzl6OoXeRdMzzExaLu-3">
          <mxGeometry relative="1" as="geometry" />
        </mxCell>
        <mxCell id="FKuzl6OoXeRdMzzExaLu-6" value="Booking Service" style="rounded=1;whiteSpace=wrap;html=1;" parent="1" vertex="1">
          <mxGeometry x="270" y="590" width="120" height="60" as="geometry" />
        </mxCell>
        <mxCell id="xwJ4hHy4Kp6xMEuaH-G5-15" style="edgeStyle=orthogonalEdgeStyle;rounded=0;orthogonalLoop=1;jettySize=auto;html=1;" edge="1" parent="1" source="xwJ4hHy4Kp6xMEuaH-G5-9" target="xwJ4hHy4Kp6xMEuaH-G5-12">
          <mxGeometry relative="1" as="geometry" />
        </mxCell>
        <mxCell id="xwJ4hHy4Kp6xMEuaH-G5-9" value="User" style="shape=umlActor;verticalLabelPosition=bottom;verticalAlign=top;html=1;outlineConnect=0;" vertex="1" parent="1">
          <mxGeometry x="610" y="40" width="30" height="60" as="geometry" />
        </mxCell>
        <mxCell id="xwJ4hHy4Kp6xMEuaH-G5-11" style="edgeStyle=orthogonalEdgeStyle;rounded=0;orthogonalLoop=1;jettySize=auto;html=1;exitX=0.5;exitY=1;exitDx=0;exitDy=0;" edge="1" parent="1" source="xwJ4hHy4Kp6xMEuaH-G5-10" target="xwJ4hHy4Kp6xMEuaH-G5-8">
          <mxGeometry relative="1" as="geometry" />
        </mxCell>
        <mxCell id="xwJ4hHy4Kp6xMEuaH-G5-10" value="Orchestrator" style="rounded=0;whiteSpace=wrap;html=1;" vertex="1" parent="1">
          <mxGeometry x="565" y="300" width="120" height="60" as="geometry" />
        </mxCell>
        <mxCell id="xwJ4hHy4Kp6xMEuaH-G5-13" style="edgeStyle=orthogonalEdgeStyle;rounded=0;orthogonalLoop=1;jettySize=auto;html=1;exitX=0.5;exitY=1;exitDx=0;exitDy=0;" edge="1" parent="1" source="xwJ4hHy4Kp6xMEuaH-G5-12" target="xwJ4hHy4Kp6xMEuaH-G5-10">
          <mxGeometry relative="1" as="geometry" />
        </mxCell>
        <mxCell id="xwJ4hHy4Kp6xMEuaH-G5-12" value="API Gateway" style="rounded=0;whiteSpace=wrap;html=1;" vertex="1" parent="1">
          <mxGeometry x="565" y="180" width="120" height="60" as="geometry" />
        </mxCell>
        <mxCell id="xwJ4hHy4Kp6xMEuaH-G5-19" value="Services" style="text;html=1;align=center;verticalAlign=middle;whiteSpace=wrap;rounded=0;" vertex="1" parent="1">
          <mxGeometry x="220" y="414" width="60" height="30" as="geometry" />
        </mxCell>
      </root>
    </mxGraphModel>
  </diagram>
</mxfile>
